<?xml version="1.0" encoding="utf-8"?>
<!-- Generator: Adobe Illustrator 23.0.2, SVG Export Plug-In . SVG Version: 6.00 Build 0)  -->
<svg version="1.1" xmlns="http://www.w3.org/2000/svg" xmlns:xlink="http://www.w3.org/1999/xlink" x="0px" y="0px"
	 viewBox="0 0 254.6 199.3" style="enable-background:new 0 0 254.6 199.3;" xml:space="preserve">
<style type="text/css">
	.st0{display:none;}
	.st1{fill:#00bc03;}
	.st2{fill:#fa2302;}
</style>
<g id="Warstwa_1" class="st0">
	
		<image style="display:inline;overflow:visible;" width="260" height="260" xlink:href="frogger.jpg"  transform="matrix(1 0 0 1 178.8939 269.7718)">
	</image>
</g>
<g id="Warstwa_2">
	<polygon class="st1" points="67.3,45.2 67.3,154.7 95.4,154.7 95.4,196.2 26.9,196.2 26.9,154.7 53.9,154.7 53.9,45.2 26.9,45.2
		26.9,3.7 95.4,3.7 95.4,45.2 	"/>
	<polygon class="st1" points="178.5,45.2 178.5,154.7 206.1,154.7 206.1,183.4 137.6,183.4 137.6,154.7 165.1,154.7 165.1,45.2
		137.6,45.2 137.6,16.5 206.1,16.5 206.1,45.2 	"/>
	<polygon class="st2" points="27.1,70.1 204.3,70.1 204.3,72.7 219.5,72.7 219.5,86.8 233.2,86.8 233.2,113.7 220.1,113.7
		220.1,128.3 205.5,128.3 205.5,129 26.9,129 	"/>
</g>
</svg>
