<?xml version="1.0" encoding="utf-8"?>
<!-- Generator: Adobe Illustrator 24.1.0, SVG Export Plug-In . SVG Version: 6.00 Build 0)  -->
<svg version="1.1" id="Warstwa_1" xmlns="http://www.w3.org/2000/svg" xmlns:xlink="http://www.w3.org/1999/xlink" x="0px" y="0px"
     viewBox="0 0 30 30" width="30" height="30"  style="enable-background:new 0 0 30 30;" xml:space="preserve">
<style type="text/css">
	.st0{fill:#fff;}
	.st1{fill:#fff; stroke: #fff;}
	.st2{fill:#fff; stroke: #fff;}
	.st3{fill:#fff; stroke: #fff;}
</style>
  <g id="Warstwa_1_1_" class="st0">
</g>
  <g>
	<rect x="2.1" y="14.5" class="st1" width="1" height="1"/>
    <rect x="24.1" y="24.1" class="st1" width="1" height="1"/>
    <polygon class="st1" points="25,23.1 25,24.1 26,24.1 26,23.1 26,22.2 25,22.2 	"/>
    <rect x="26" y="21.2" class="st1" width="1" height="1"/>
    <rect x="28.9" y="18.3" class="st2" width="1" height="1"/>
    <rect x="28.9" y="17.4" class="st2" width="1" height="1"/>
    <rect x="28.9" y="16.4" class="st2" width="1" height="1"/>
    <rect x="28.9" y="15.5" class="st2" width="1" height="1"/>
    <rect x="28.9" y="14.5" class="st2" width="1" height="1"/>
    <rect x="28.9" y="13.6" class="st2" width="1" height="1"/>
    <rect x="28.9" y="12.6" class="st2" width="1" height="1"/>
    <rect x="28.9" y="11.7" class="st2" width="1" height="1"/>
    <rect x="27.9" y="21.2" class="st3" width="1" height="1"/>
    <rect x="27.9" y="20.3" class="st3" width="1" height="1"/>
    <rect x="27.9" y="19.3" class="st2" width="1" height="1"/>
    <rect x="27.9" y="18.3" class="st2" width="1" height="1"/>
    <rect x="27.9" y="17.4" class="st2" width="1" height="1"/>
    <rect x="27.9" y="16.4" class="st2" width="1" height="1"/>
    <rect x="27.9" y="15.5" class="st2" width="1" height="1"/>
    <rect x="27.9" y="14.5" class="st2" width="1" height="1"/>
    <rect x="27.9" y="13.6" class="st3" width="1" height="1"/>
    <rect x="27.9" y="12.6" class="st3" width="1" height="1"/>
    <rect x="27.9" y="11.7" class="st2" width="1" height="1"/>
    <rect x="27.9" y="10.7" class="st2" width="1" height="1"/>
    <rect x="27.9" y="9.7" class="st2" width="1" height="1"/>
    <rect x="27.9" y="8.8" class="st3" width="1" height="1"/>
    <rect x="27.9" y="7.8" class="st2" width="1" height="1"/>
    <rect x="26.9" y="22.2" class="st2" width="1" height="1"/>
    <rect x="26.9" y="21.2" class="st2" width="1" height="1"/>
    <rect x="26.9" y="20.3" class="st2" width="1" height="1"/>
    <rect x="26.9" y="19.3" class="st2" width="1" height="1"/>
    <rect x="26.9" y="18.3" class="st2" width="1" height="1"/>
    <rect x="26.9" y="17.4" class="st2" width="1" height="1"/>
    <rect x="26.9" y="16.4" class="st2" width="1" height="1"/>
    <rect x="26.9" y="15.5" class="st2" width="1" height="1"/>
    <rect x="26.9" y="14.5" class="st2" width="1" height="1"/>
    <rect x="26.9" y="13.6" class="st3" width="1" height="1"/>
    <rect x="26.9" y="12.6" class="st2" width="1" height="1"/>
    <rect x="26.9" y="11.7" class="st2" width="1" height="1"/>
    <rect x="26.9" y="10.7" class="st2" width="1" height="1"/>
    <rect x="26.9" y="9.7" class="st2" width="1" height="1"/>
    <rect x="26.9" y="8.8" class="st2" width="1" height="1"/>
    <rect x="26.9" y="7.8" class="st3" width="1" height="1"/>
    <rect x="26.9" y="6.9" class="st2" width="1" height="1"/>
    <rect x="26" y="24.1" class="st2" width="1" height="1"/>
    <rect x="26" y="23.1" class="st2" width="1" height="1"/>
    <rect x="26" y="22.2" class="st2" width="1" height="1"/>
    <rect x="26" y="20.3" class="st3" width="1" height="1"/>
    <rect x="26" y="19.3" class="st3" width="1" height="1"/>
    <rect x="26" y="18.3" class="st2" width="1" height="1"/>
    <rect x="26" y="17.4" class="st2" width="1" height="1"/>
    <rect x="26" y="16.4" class="st2" width="1" height="1"/>
    <rect x="26" y="15.5" class="st2" width="1" height="1"/>
    <rect x="26" y="14.5" class="st2" width="1" height="1"/>
    <rect x="26" y="13.6" class="st2" width="1" height="1"/>
    <rect x="26" y="12.6" class="st2" width="1" height="1"/>
    <rect x="26" y="11.7" class="st3" width="1" height="1"/>
    <rect x="26" y="10.7" class="st2" width="1" height="1"/>
    <rect x="26" y="9.7" class="st2" width="1" height="1"/>
    <rect x="26" y="8.8" class="st2" width="1" height="1"/>
    <rect x="26" y="7.8" class="st2" width="1" height="1"/>
    <rect x="26" y="6.9" class="st2" width="1" height="1"/>
    <rect x="26" y="5.9" class="st3" width="1" height="1"/>
    <rect x="26" y="4" class="st2" width="1" height="1"/>
    <rect x="25" y="25" class="st2" width="1" height="1"/>
    <rect x="25" y="24.1" class="st2" width="1" height="1"/>
    <rect x="25" y="21.2" class="st2" width="1" height="1"/>
    <rect x="25" y="20.3" class="st2" width="1" height="1"/>
    <rect x="25" y="19.3" class="st2" width="1" height="1"/>
    <rect x="25" y="18.3" class="st2" width="1" height="1"/>
    <rect x="25" y="17.4" class="st2" width="1" height="1"/>
    <rect x="25" y="16.4" class="st2" width="1" height="1"/>
    <rect x="25" y="15.5" class="st2" width="1" height="1"/>
    <rect x="25" y="14.5" class="st2" width="1" height="1"/>
    <rect x="25" y="13.6" class="st2" width="1" height="1"/>
    <rect x="25" y="12.6" class="st2" width="1" height="1"/>
    <rect x="25" y="11.7" class="st3" width="1" height="1"/>
    <rect x="25" y="10.7" class="st2" width="1" height="1"/>
    <rect x="25" y="9.7" class="st2" width="1" height="1"/>
    <rect x="25" y="8.8" class="st3" width="1" height="1"/>
    <rect x="25" y="7.8" class="st2" width="1" height="1"/>
    <rect x="25" y="6.9" class="st2" width="1" height="1"/>
    <rect x="25" y="5.9" class="st2" width="1" height="1"/>
    <rect x="25" y="4" class="st2" width="1" height="1"/>
    <rect x="25" y="3.1" class="st2" width="1" height="1"/>
    <rect x="24.1" y="25" class="st2" width="1" height="1"/>
    <rect x="24.1" y="23.1" class="st2" width="1" height="1"/>
    <rect x="24.1" y="22.2" class="st2" width="1" height="1"/>
    <rect x="24.1" y="21.2" class="st2" width="1" height="1"/>
    <rect x="24.1" y="20.3" class="st3" width="1" height="1"/>
    <rect x="24.1" y="19.3" class="st3" width="1" height="1"/>
    <rect x="24.1" y="18.3" class="st2" width="1" height="1"/>
    <rect x="24.1" y="17.4" class="st2" width="1" height="1"/>
    <rect x="24.1" y="16.4" class="st2" width="1" height="1"/>
    <rect x="24.1" y="15.5" class="st2" width="1" height="1"/>
    <rect x="24.1" y="14.5" class="st2" width="1" height="1"/>
    <rect x="24.1" y="13.6" class="st2" width="1" height="1"/>
    <rect x="24.1" y="12.6" class="st2" width="1" height="1"/>
    <rect x="24.1" y="11.7" class="st2" width="1" height="1"/>
    <rect x="24.1" y="10.7" class="st2" width="1" height="1"/>
    <rect x="24.1" y="9.7" class="st2" width="1" height="1"/>
    <rect x="24.1" y="8.8" class="st2" width="1" height="1"/>
    <rect x="24.1" y="7.8" class="st2" width="1" height="1"/>
    <rect x="24.1" y="6.9" class="st2" width="1" height="1"/>
    <rect x="24.1" y="5.9" class="st2" width="1" height="1"/>
    <rect x="24.1" y="5" class="st2" width="1" height="1"/>
    <rect x="24.1" y="4" class="st2" width="1" height="1"/>
    <rect x="24.1" y="3.1" class="st3" width="1" height="1"/>
    <rect x="23.1" y="26" class="st2" width="1" height="1"/>
    <rect x="23.1" y="25" class="st2" width="1" height="1"/>
    <rect x="23.1" y="24.1" class="st2" width="1" height="1"/>
    <rect x="23.1" y="23.1" class="st2" width="1" height="1"/>
    <rect x="23.1" y="22.2" class="st3" width="1" height="1"/>
    <rect x="23.1" y="21.2" class="st2" width="1" height="1"/>
    <rect x="23.1" y="20.3" class="st3" width="1" height="1"/>
    <rect x="23.1" y="19.3" class="st3" width="1" height="1"/>
    <rect x="23.1" y="18.3" class="st2" width="1" height="1"/>
    <rect x="23.1" y="17.4" class="st2" width="1" height="1"/>
    <rect x="23.1" y="16.4" class="st2" width="1" height="1"/>
    <rect x="23.1" y="15.5" class="st2" width="1" height="1"/>
    <rect x="23.1" y="14.5" class="st2" width="1" height="1"/>
    <rect x="23.1" y="13.6" class="st2" width="1" height="1"/>
    <rect x="23.1" y="12.6" class="st3" width="1" height="1"/>
    <rect x="23.1" y="11.7" class="st2" width="1" height="1"/>
    <rect x="23.1" y="10.7" class="st3" width="1" height="1"/>
    <rect x="23.1" y="9.7" class="st2" width="1" height="1"/>
    <rect x="23.1" y="8.8" class="st2" width="1" height="1"/>
    <rect x="23.1" y="7.8" class="st3" width="1" height="1"/>
    <rect x="23.1" y="6.9" class="st2" width="1" height="1"/>
    <rect x="23.1" y="5.9" class="st3" width="1" height="1"/>
    <rect x="23.1" y="5" class="st2" width="1" height="1"/>
    <rect x="23.1" y="4" class="st2" width="1" height="1"/>
    <rect x="23.1" y="3.1" class="st2" width="1" height="1"/>
    <rect x="23.1" y="2.1" class="st2" width="1" height="1"/>
    <rect x="22.2" y="26" class="st2" width="1" height="1"/>
    <rect x="22.2" y="25" class="st2" width="1" height="1"/>
    <rect x="22.2" y="24.1" class="st2" width="1" height="1"/>
    <rect x="22.2" y="23.1" class="st2" width="1" height="1"/>
    <rect x="22.2" y="22.2" class="st3" width="1" height="1"/>
    <rect x="22.2" y="21.2" class="st2" width="1" height="1"/>
    <rect x="22.2" y="20.3" class="st2" width="1" height="1"/>
    <rect x="22.2" y="19.3" class="st2" width="1" height="1"/>
    <rect x="22.2" y="18.3" class="st2" width="1" height="1"/>
    <rect x="22.2" y="17.4" class="st3" width="1" height="1"/>
    <rect x="22.2" y="16.4" class="st2" width="1" height="1"/>
    <rect x="22.2" y="15.5" class="st2" width="1" height="1"/>
    <rect x="22.2" y="14.5" class="st3" width="1" height="1"/>
    <rect x="22.2" y="13.6" class="st2" width="1" height="1"/>
    <rect x="22.2" y="12.6" class="st2" width="1" height="1"/>
    <rect x="22.2" y="11.7" class="st2" width="1" height="1"/>
    <rect x="22.2" y="10.7" class="st2" width="1" height="1"/>
    <rect x="22.2" y="9.7" class="st2" width="1" height="1"/>
    <rect x="22.2" y="8.8" class="st2" width="1" height="1"/>
    <rect x="22.2" y="7.8" class="st2" width="1" height="1"/>
    <rect x="22.2" y="6.9" class="st2" width="1" height="1"/>
    <rect x="22.2" y="5.9" class="st2" width="1" height="1"/>
    <rect x="22.2" y="5" class="st2" width="1" height="1"/>
    <rect x="22.2" y="4" class="st2" width="1" height="1"/>
    <rect x="22.2" y="3.1" class="st2" width="1" height="1"/>
    <rect x="22.2" y="2.1" class="st2" width="1" height="1"/>
    <rect x="21.2" y="26.9" class="st2" width="1" height="1"/>
    <rect x="21.2" y="26" class="st2" width="1" height="1"/>
    <rect x="21.2" y="25" class="st2" width="1" height="1"/>
    <rect x="21.2" y="24.1" class="st2" width="1" height="1"/>
    <rect x="21.2" y="23.1" class="st2" width="1" height="1"/>
    <rect x="21.2" y="22.2" class="st2" width="1" height="1"/>
    <rect x="21.2" y="21.2" class="st2" width="1" height="1"/>
    <rect x="21.2" y="20.3" class="st3" width="1" height="1"/>
    <rect x="21.2" y="19.3" class="st3" width="1" height="1"/>
    <rect x="21.2" y="18.3" class="st2" width="1" height="1"/>
    <rect x="21.2" y="17.4" class="st2" width="1" height="1"/>
    <rect x="21.2" y="16.4" class="st3" width="1" height="1"/>
    <rect x="21.2" y="15.5" class="st2" width="1" height="1"/>
    <rect x="21.2" y="14.5" class="st3" width="1" height="1"/>
    <rect x="21.2" y="13.6" class="st3" width="1" height="1"/>
    <rect x="21.2" y="12.6" class="st3" width="1" height="1"/>
    <rect x="21.2" y="11.7" class="st2" width="1" height="1"/>
    <rect x="21.2" y="10.7" class="st2" width="1" height="1"/>
    <rect x="21.2" y="9.7" class="st2" width="1" height="1"/>
    <rect x="21.2" y="8.8" class="st3" width="1" height="1"/>
    <rect x="21.2" y="7.8" class="st2" width="1" height="1"/>
    <rect x="21.2" y="6.9" class="st2" width="1" height="1"/>
    <rect x="21.2" y="5.9" class="st3" width="1" height="1"/>
    <rect x="21.2" y="5" class="st3" width="1" height="1"/>
    <rect x="21.2" y="4" class="st3" width="1" height="1"/>
    <rect x="21.2" y="3.1" class="st2" width="1" height="1"/>
    <rect x="21.2" y="2.1" class="st2" width="1" height="1"/>
    <rect x="21.2" y="1.1" class="st2" width="1" height="1"/>
    <rect x="20.3" y="26.9" class="st2" width="1" height="1"/>
    <rect x="20.3" y="26" class="st2" width="1" height="1"/>
    <rect x="20.3" y="25" class="st2" width="1" height="1"/>
    <rect x="20.3" y="24.1" class="st2" width="1" height="1"/>
    <rect x="20.3" y="23.1" class="st3" width="1" height="1"/>
    <rect x="20.3" y="22.2" class="st2" width="1" height="1"/>
    <rect x="20.3" y="21.2" class="st2" width="1" height="1"/>
    <rect x="20.3" y="20.3" class="st2" width="1" height="1"/>
    <rect x="20.3" y="19.3" class="st2" width="1" height="1"/>
    <rect x="20.3" y="18.3" class="st3" width="1" height="1"/>
    <rect x="20.3" y="17.4" class="st2" width="1" height="1"/>
    <rect x="20.3" y="16.4" class="st3" width="1" height="1"/>
    <rect x="20.3" y="15.5" class="st2" width="1" height="1"/>
    <rect x="20.3" y="14.5" class="st2" width="1" height="1"/>
    <rect x="20.3" y="13.6" class="st2" width="1" height="1"/>
    <rect x="20.3" y="12.6" class="st2" width="1" height="1"/>
    <rect x="20.3" y="11.7" class="st2" width="1" height="1"/>
    <rect x="20.3" y="10.7" class="st3" width="1" height="1"/>
    <rect x="20.3" y="9.7" class="st3" width="1" height="1"/>
    <rect x="20.3" y="8.8" class="st2" width="1" height="1"/>
    <rect x="20.3" y="7.8" class="st2" width="1" height="1"/>
    <rect x="20.3" y="6.9" class="st2" width="1" height="1"/>
    <rect x="20.3" y="5.9" class="st2" width="1" height="1"/>
    <rect x="20.3" y="5" class="st3" width="1" height="1"/>
    <rect x="20.3" y="4" class="st2" width="1" height="1"/>
    <rect x="20.3" y="3.1" class="st2" width="1" height="1"/>
    <rect x="20.3" y="2.1" class="st2" width="1" height="1"/>
    <rect x="20.3" y="1.1" class="st2" width="1" height="1"/>
    <rect x="19.3" y="27.9" class="st3" width="1" height="1"/>
    <rect x="19.3" y="26.9" class="st2" width="1" height="1"/>
    <rect x="19.3" y="26" class="st2" width="1" height="1"/>
    <rect x="19.3" y="25" class="st2" width="1" height="1"/>
    <rect x="19.3" y="24.1" class="st2" width="1" height="1"/>
    <rect x="19.3" y="23.1" class="st2" width="1" height="1"/>
    <rect x="19.3" y="22.2" class="st2" width="1" height="1"/>
    <rect x="19.3" y="21.2" class="st3" width="1" height="1"/>
    <rect x="19.3" y="20.3" class="st3" width="1" height="1"/>
    <rect x="19.3" y="19.3" class="st2" width="1" height="1"/>
    <rect x="19.3" y="18.3" class="st3" width="1" height="1"/>
    <rect x="19.3" y="17.4" class="st2" width="1" height="1"/>
    <rect x="19.3" y="16.4" class="st2" width="1" height="1"/>
    <rect x="19.3" y="15.5" class="st2" width="1" height="1"/>
    <rect x="19.3" y="14.5" class="st2" width="1" height="1"/>
    <rect x="19.3" y="13.6" class="st2" width="1" height="1"/>
    <rect x="19.3" y="12.6" class="st2" width="1" height="1"/>
    <rect x="19.3" y="11.7" class="st3" width="1" height="1"/>
    <rect x="19.3" y="10.7" class="st3" width="1" height="1"/>
    <rect x="19.3" y="9.7" class="st2" width="1" height="1"/>
    <rect x="19.3" y="8.8" class="st2" width="1" height="1"/>
    <rect x="19.3" y="7.8" class="st3" width="1" height="1"/>
    <rect x="19.3" y="6.9" class="st2" width="1" height="1"/>
    <rect x="19.3" y="5.9" class="st2" width="1" height="1"/>
    <rect x="19.3" y="5" class="st2" width="1" height="1"/>
    <rect x="19.3" y="4" class="st2" width="1" height="1"/>
    <rect x="19.3" y="3.1" class="st2" width="1" height="1"/>
    <rect x="19.3" y="2.1" class="st3" width="1" height="1"/>
    <rect x="19.3" y="1.1" class="st2" width="1" height="1"/>
    <rect x="19.3" y="0.2" class="st2" width="1" height="1"/>
    <rect x="18.3" y="27.9" class="st3" width="1" height="1"/>
    <rect x="18.3" y="26.9" class="st2" width="1" height="1"/>
    <rect x="18.3" y="26" class="st3" width="1" height="1"/>
    <rect x="18.3" y="25" class="st2" width="1" height="1"/>
    <rect x="18.3" y="24.1" class="st2" width="1" height="1"/>
    <rect x="18.3" y="23.1" class="st2" width="1" height="1"/>
    <rect x="18.3" y="22.2" class="st2" width="1" height="1"/>
    <rect x="18.3" y="21.2" class="st3" width="1" height="1"/>
    <rect x="18.3" y="20.3" class="st3" width="1" height="1"/>
    <rect x="18.3" y="19.3" class="st2" width="1" height="1"/>
    <rect x="18.3" y="18.3" class="st3" width="1" height="1"/>
    <rect x="18.3" y="17.4" class="st3" width="1" height="1"/>
    <rect x="18.3" y="16.4" class="st2" width="1" height="1"/>
    <rect x="18.3" y="15.5" class="st2" width="1" height="1"/>
    <rect x="18.3" y="14.5" class="st2" width="1" height="1"/>
    <rect x="18.3" y="13.6" class="st2" width="1" height="1"/>
    <rect x="18.3" y="12.6" class="st2" width="1" height="1"/>
    <rect x="18.3" y="11.7" class="st3" width="1" height="1"/>
    <rect x="18.3" y="10.7" class="st3" width="1" height="1"/>
    <rect x="18.3" y="9.7" class="st2" width="1" height="1"/>
    <rect x="18.3" y="8.8" class="st3" width="1" height="1"/>
    <rect x="18.3" y="7.8" class="st2" width="1" height="1"/>
    <rect x="18.3" y="6.9" class="st2" width="1" height="1"/>
    <rect x="18.3" y="5.9" class="st2" width="1" height="1"/>
    <rect x="18.3" y="5" class="st2" width="1" height="1"/>
    <rect x="18.3" y="4" class="st2" width="1" height="1"/>
    <rect x="18.3" y="3.1" class="st2" width="1" height="1"/>
    <rect x="18.3" y="2.1" class="st2" width="1" height="1"/>
    <rect x="18.3" y="1.1" class="st2" width="1" height="1"/>
    <rect x="18.3" y="0.2" class="st2" width="1" height="1"/>
    <rect x="17.4" y="28.9" class="st2" width="1" height="1"/>
    <rect x="17.4" y="27.9" class="st3" width="1" height="1"/>
    <rect x="17.4" y="26.9" class="st2" width="1" height="1"/>
    <rect x="17.4" y="26" class="st3" width="1" height="1"/>
    <rect x="17.4" y="25" class="st2" width="1" height="1"/>
    <rect x="17.4" y="24.1" class="st2" width="1" height="1"/>
    <rect x="17.4" y="23.1" class="st3" width="1" height="1"/>
    <rect x="17.4" y="22.2" class="st2" width="1" height="1"/>
    <rect x="17.4" y="21.2" class="st3" width="1" height="1"/>
    <rect x="17.4" y="20.3" class="st2" width="1" height="1"/>
    <rect x="17.4" y="19.3" class="st2" width="1" height="1"/>
    <rect x="17.4" y="18.3" class="st3" width="1" height="1"/>
    <rect x="17.4" y="17.4" class="st2" width="1" height="1"/>
    <rect x="17.4" y="16.4" class="st2" width="1" height="1"/>
    <rect x="17.4" y="15.5" class="st2" width="1" height="1"/>
    <rect x="17.4" y="14.5" class="st3" width="1" height="1"/>
    <rect x="17.4" y="13.6" class="st3" width="1" height="1"/>
    <rect x="17.4" y="12.6" class="st2" width="1" height="1"/>
    <rect x="17.4" y="11.7" class="st3" width="1" height="1"/>
    <rect x="17.4" y="10.7" class="st3" width="1" height="1"/>
    <rect x="17.4" y="9.7" class="st2" width="1" height="1"/>
    <rect x="17.4" y="8.8" class="st2" width="1" height="1"/>
    <rect x="17.4" y="7.8" class="st2" width="1" height="1"/>
    <rect x="17.4" y="6.9" class="st3" width="1" height="1"/>
    <rect x="17.4" y="5.9" class="st3" width="1" height="1"/>
    <rect x="17.4" y="5" class="st2" width="1" height="1"/>
    <rect x="17.4" y="4" class="st2" width="1" height="1"/>
    <rect x="17.4" y="3.1" class="st2" width="1" height="1"/>
    <rect x="17.4" y="2.1" class="st2" width="1" height="1"/>
    <rect x="17.4" y="1.1" class="st2" width="1" height="1"/>
    <rect x="17.4" y="0.2" class="st2" width="1" height="1"/>
    <rect x="16.4" y="28.9" class="st2" width="1" height="1"/>
    <rect x="16.4" y="27.9" class="st2" width="1" height="1"/>
    <rect x="16.4" y="26.9" class="st2" width="1" height="1"/>
    <rect x="16.4" y="26" class="st2" width="1" height="1"/>
    <rect x="16.4" y="25" class="st2" width="1" height="1"/>
    <rect x="16.4" y="24.1" class="st2" width="1" height="1"/>
    <rect x="16.4" y="23.1" class="st2" width="1" height="1"/>
    <rect x="16.4" y="22.2" class="st2" width="1" height="1"/>
    <rect x="16.4" y="21.2" class="st3" width="1" height="1"/>
    <rect x="16.4" y="20.3" class="st2" width="1" height="1"/>
    <rect x="16.4" y="19.3" class="st3" width="1" height="1"/>
    <rect x="16.4" y="18.3" class="st2" width="1" height="1"/>
    <rect x="16.4" y="17.4" class="st2" width="1" height="1"/>
    <rect x="16.4" y="16.4" class="st2" width="1" height="1"/>
    <rect x="16.4" y="15.5" class="st3" width="1" height="1"/>
    <rect x="16.4" y="14.5" class="st3" width="1" height="1"/>
    <rect x="16.4" y="13.6" class="st2" width="1" height="1"/>
    <rect x="16.4" y="12.6" class="st2" width="1" height="1"/>
    <rect x="16.4" y="11.7" class="st3" width="1" height="1"/>
    <rect x="16.4" y="10.7" class="st3" width="1" height="1"/>
    <rect x="16.4" y="9.7" class="st3" width="1" height="1"/>
    <rect x="16.4" y="8.8" class="st3" width="1" height="1"/>
    <rect x="16.4" y="7.8" class="st3" width="1" height="1"/>
    <rect x="16.4" y="6.9" class="st3" width="1" height="1"/>
    <rect x="16.4" y="5.9" class="st3" width="1" height="1"/>
    <rect x="16.4" y="5" class="st2" width="1" height="1"/>
    <rect x="16.4" y="4" class="st2" width="1" height="1"/>
    <rect x="16.4" y="3.1" class="st2" width="1" height="1"/>
    <rect x="16.4" y="2.1" class="st2" width="1" height="1"/>
    <rect x="16.4" y="1.1" class="st2" width="1" height="1"/>
    <rect x="16.4" y="0.2" class="st2" width="1" height="1"/>
    <rect x="15.5" y="27.9" class="st2" width="1" height="1"/>
    <rect x="15.5" y="26.9" class="st2" width="1" height="1"/>
    <rect x="15.5" y="26" class="st2" width="1" height="1"/>
    <rect x="15.5" y="25" class="st2" width="1" height="1"/>
    <rect x="15.5" y="24.1" class="st2" width="1" height="1"/>
    <rect x="15.5" y="23.1" class="st2" width="1" height="1"/>
    <rect x="15.5" y="22.2" class="st2" width="1" height="1"/>
    <rect x="15.5" y="21.2" class="st2" width="1" height="1"/>
    <rect x="15.5" y="20.3" class="st2" width="1" height="1"/>
    <rect x="15.5" y="19.3" class="st2" width="1" height="1"/>
    <rect x="15.5" y="18.3" class="st2" width="1" height="1"/>
    <rect x="15.5" y="17.4" class="st2" width="1" height="1"/>
    <rect x="15.5" y="16.4" class="st2" width="1" height="1"/>
    <rect x="15.5" y="15.5" class="st3" width="1" height="1"/>
    <rect x="15.5" y="14.5" class="st3" width="1" height="1"/>
    <rect x="15.5" y="13.6" class="st2" width="1" height="1"/>
    <rect x="15.5" y="12.6" class="st3" width="1" height="1"/>
    <rect x="15.5" y="11.7" class="st3" width="1" height="1"/>
    <rect x="15.5" y="10.7" class="st3" width="1" height="1"/>
    <rect x="15.5" y="9.7" class="st3" width="1" height="1"/>
    <rect x="15.5" y="8.8" class="st2" width="1" height="1"/>
    <rect x="15.5" y="7.8" class="st3" width="1" height="1"/>
    <rect x="15.5" y="6.9" class="st3" width="1" height="1"/>
    <rect x="15.5" y="5.9" class="st3" width="1" height="1"/>
    <rect x="15.5" y="5" class="st2" width="1" height="1"/>
    <rect x="15.5" y="4" class="st2" width="1" height="1"/>
    <rect x="15.5" y="3.1" class="st2" width="1" height="1"/>
    <rect x="15.5" y="2.1" class="st2" width="1" height="1"/>
    <rect x="15.5" y="1.1" class="st3" width="1" height="1"/>
    <rect x="15.5" y="0.2" class="st2" width="1" height="1"/>
    <rect x="14.5" y="27.9" class="st2" width="1" height="1"/>
    <rect x="14.5" y="26.9" class="st3" width="1" height="1"/>
    <rect x="14.5" y="26" class="st3" width="1" height="1"/>
    <rect x="14.5" y="25" class="st2" width="1" height="1"/>
    <rect x="14.5" y="24.1" class="st2" width="1" height="1"/>
    <rect x="14.5" y="23.1" class="st2" width="1" height="1"/>
    <rect x="14.5" y="22.2" class="st2" width="1" height="1"/>
    <rect x="14.5" y="21.2" class="st3" width="1" height="1"/>
    <rect x="14.5" y="20.3" class="st2" width="1" height="1"/>
    <rect x="14.5" y="19.3" class="st2" width="1" height="1"/>
    <rect x="14.5" y="18.3" class="st2" width="1" height="1"/>
    <rect x="14.5" y="17.4" class="st2" width="1" height="1"/>
    <rect x="14.5" y="16.4" class="st2" width="1" height="1"/>
    <rect x="14.5" y="15.5" class="st2" width="1" height="1"/>
    <rect x="14.5" y="14.5" class="st2" width="1" height="1"/>
    <rect x="14.5" y="13.6" class="st2" width="1" height="1"/>
    <rect x="14.5" y="12.6" class="st3" width="1" height="1"/>
    <rect x="14.5" y="11.7" class="st3" width="1" height="1"/>
    <rect x="14.5" y="10.7" class="st3" width="1" height="1"/>
    <rect x="14.5" y="9.7" class="st2" width="1" height="1"/>
    <rect x="14.5" y="8.8" class="st2" width="1" height="1"/>
    <rect x="14.5" y="7.8" class="st2" width="1" height="1"/>
    <rect x="14.5" y="6.9" class="st2" width="1" height="1"/>
    <rect x="14.5" y="5.9" class="st2" width="1" height="1"/>
    <rect x="14.5" y="5" class="st2" width="1" height="1"/>
    <rect x="14.5" y="4" class="st2" width="1" height="1"/>
    <rect x="14.5" y="3.1" class="st3" width="1" height="1"/>
    <rect x="14.5" y="2.1" class="st2" width="1" height="1"/>
    <rect x="14.5" y="1.1" class="st3" width="1" height="1"/>
    <rect x="14.5" y="0.2" class="st2" width="1" height="1"/>
    <rect x="13.6" y="27.9" class="st2" width="1" height="1"/>
    <rect x="13.6" y="26.9" class="st3" width="1" height="1"/>
    <rect x="13.6" y="26" class="st3" width="1" height="1"/>
    <rect x="13.6" y="25" class="st3" width="1" height="1"/>
    <rect x="13.6" y="24.1" class="st2" width="1" height="1"/>
    <rect x="13.6" y="23.1" class="st2" width="1" height="1"/>
    <rect x="13.6" y="22.2" class="st3" width="1" height="1"/>
    <rect x="13.6" y="21.2" class="st3" width="1" height="1"/>
    <rect x="13.6" y="20.3" class="st2" width="1" height="1"/>
    <rect x="13.6" y="19.3" class="st2" width="1" height="1"/>
    <rect x="13.6" y="18.3" class="st2" width="1" height="1"/>
    <rect x="13.6" y="17.4" class="st2" width="1" height="1"/>
    <rect x="13.6" y="16.4" class="st2" width="1" height="1"/>
    <rect x="13.6" y="15.5" class="st3" width="1" height="1"/>
    <rect x="13.6" y="14.5" class="st3" width="1" height="1"/>
    <rect x="13.6" y="13.6" class="st2" width="1" height="1"/>
    <rect x="13.6" y="12.6" class="st2" width="1" height="1"/>
    <rect x="13.6" y="11.7" class="st2" width="1" height="1"/>
    <rect x="13.6" y="10.7" class="st2" width="1" height="1"/>
    <rect x="13.6" y="9.7" class="st3" width="1" height="1"/>
    <rect x="13.6" y="8.8" class="st3" width="1" height="1"/>
    <rect x="13.6" y="7.8" class="st3" width="1" height="1"/>
    <rect x="13.6" y="6.9" class="st2" width="1" height="1"/>
    <rect x="13.6" y="5.9" class="st2" width="1" height="1"/>
    <rect x="13.6" y="5" class="st2" width="1" height="1"/>
    <rect x="13.6" y="4" class="st3" width="1" height="1"/>
    <rect x="13.6" y="3.1" class="st3" width="1" height="1"/>
    <rect x="13.6" y="2.1" class="st2" width="1" height="1"/>
    <rect x="13.6" y="1.1" class="st2" width="1" height="1"/>
    <rect x="13.6" y="0.2" class="st2" width="1" height="1"/>
    <rect x="12.6" y="27.9" class="st2" width="1" height="1"/>
    <rect x="12.6" y="26.9" class="st2" width="1" height="1"/>
    <rect x="12.6" y="26" class="st3" width="1" height="1"/>
    <rect x="12.6" y="25" class="st3" width="1" height="1"/>
    <rect x="12.6" y="24.1" class="st2" width="1" height="1"/>
    <rect x="12.6" y="23.1" class="st2" width="1" height="1"/>
    <rect x="12.6" y="22.2" class="st2" width="1" height="1"/>
    <rect x="12.6" y="21.2" class="st2" width="1" height="1"/>
    <rect x="12.6" y="20.3" class="st2" width="1" height="1"/>
    <rect x="12.6" y="19.3" class="st2" width="1" height="1"/>
    <rect x="12.6" y="18.3" class="st2" width="1" height="1"/>
    <rect x="12.6" y="17.4" class="st2" width="1" height="1"/>
    <rect x="12.6" y="16.4" class="st3" width="1" height="1"/>
    <rect x="12.6" y="15.5" class="st3" width="1" height="1"/>
    <rect x="12.6" y="14.5" class="st3" width="1" height="1"/>
    <rect x="12.6" y="13.6" class="st2" width="1" height="1"/>
    <rect x="12.6" y="12.6" class="st2" width="1" height="1"/>
    <rect x="12.6" y="11.7" class="st2" width="1" height="1"/>
    <rect x="12.6" y="10.7" class="st3" width="1" height="1"/>
    <rect x="12.6" y="9.7" class="st3" width="1" height="1"/>
    <rect x="12.6" y="8.8" class="st3" width="1" height="1"/>
    <rect x="12.6" y="7.8" class="st2" width="1" height="1"/>
    <rect x="12.6" y="6.9" class="st2" width="1" height="1"/>
    <rect x="12.6" y="5.9" class="st2" width="1" height="1"/>
    <rect x="12.6" y="5" class="st2" width="1" height="1"/>
    <rect x="12.6" y="4" class="st3" width="1" height="1"/>
    <rect x="12.6" y="3.1" class="st3" width="1" height="1"/>
    <rect x="12.6" y="2.1" class="st2" width="1" height="1"/>
    <rect x="12.6" y="1.1" class="st2" width="1" height="1"/>
    <rect x="11.7" y="26.9" class="st2" width="1" height="1"/>
    <rect x="11.7" y="26" class="st2" width="1" height="1"/>
    <rect x="11.7" y="25" class="st2" width="1" height="1"/>
    <rect x="11.7" y="24.1" class="st2" width="1" height="1"/>
    <rect x="11.7" y="23.1" class="st2" width="1" height="1"/>
    <rect x="11.7" y="22.2" class="st2" width="1" height="1"/>
    <rect x="11.7" y="21.2" class="st2" width="1" height="1"/>
    <rect x="11.7" y="20.3" class="st3" width="1" height="1"/>
    <rect x="11.7" y="19.3" class="st2" width="1" height="1"/>
    <rect x="11.7" y="18.3" class="st2" width="1" height="1"/>
    <rect x="11.7" y="17.4" class="st3" width="1" height="1"/>
    <rect x="11.7" y="16.4" class="st3" width="1" height="1"/>
    <rect x="11.7" y="15.5" class="st3" width="1" height="1"/>
    <rect x="11.7" y="14.5" class="st3" width="1" height="1"/>
    <rect x="11.7" y="13.6" class="st2" width="1" height="1"/>
    <rect x="11.7" y="12.6" class="st2" width="1" height="1"/>
    <rect x="11.7" y="11.7" class="st2" width="1" height="1"/>
    <rect x="11.7" y="10.7" class="st2" width="1" height="1"/>
    <rect x="11.7" y="9.7" class="st2" width="1" height="1"/>
    <rect x="11.7" y="8.8" class="st2" width="1" height="1"/>
    <rect x="11.7" y="7.8" class="st2" width="1" height="1"/>
    <rect x="11.7" y="6.9" class="st3" width="1" height="1"/>
    <rect x="11.7" y="5.9" class="st2" width="1" height="1"/>
    <rect x="11.7" y="5" class="st2" width="1" height="1"/>
    <rect x="11.7" y="4" class="st2" width="1" height="1"/>
    <rect x="11.7" y="3.1" class="st2" width="1" height="1"/>
    <rect x="11.7" y="2.1" class="st2" width="1" height="1"/>
    <rect x="11.7" y="1.1" class="st2" width="1" height="1"/>
    <rect x="10.7" y="25" class="st2" width="1" height="1"/>
    <rect x="10.7" y="24.1" class="st2" width="1" height="1"/>
    <rect x="10.7" y="23.1" class="st3" width="1" height="1"/>
    <rect x="10.7" y="22.2" class="st3" width="1" height="1"/>
    <rect x="10.7" y="21.2" class="st3" width="1" height="1"/>
    <rect x="10.7" y="20.3" class="st2" width="1" height="1"/>
    <rect x="10.7" y="19.3" class="st2" width="1" height="1"/>
    <rect x="10.7" y="18.3" class="st2" width="1" height="1"/>
    <rect x="10.7" y="17.4" class="st2" width="1" height="1"/>
    <rect x="10.7" y="16.4" class="st2" width="1" height="1"/>
    <rect x="10.7" y="15.5" class="st2" width="1" height="1"/>
    <rect x="10.7" y="14.5" class="st2" width="1" height="1"/>
    <rect x="10.7" y="13.6" class="st2" width="1" height="1"/>
    <rect x="10.7" y="12.6" class="st3" width="1" height="1"/>
    <rect x="10.7" y="11.7" class="st2" width="1" height="1"/>
    <rect x="10.7" y="10.7" class="st2" width="1" height="1"/>
    <rect x="10.7" y="9.7" class="st2" width="1" height="1"/>
    <rect x="10.7" y="8.8" class="st3" width="1" height="1"/>
    <rect x="10.7" y="7.8" class="st3" width="1" height="1"/>
    <rect x="10.7" y="6.9" class="st3" width="1" height="1"/>
    <rect x="10.7" y="5.9" class="st2" width="1" height="1"/>
    <rect x="10.7" y="5" class="st2" width="1" height="1"/>
    <rect x="10.7" y="4" class="st2" width="1" height="1"/>
    <rect x="10.7" y="3.1" class="st2" width="1" height="1"/>
    <rect x="10.7" y="2.1" class="st2" width="1" height="1"/>
    <rect x="10.7" y="1.1" class="st2" width="1" height="1"/>
    <rect x="9.7" y="26" class="st2" width="1" height="1"/>
    <rect x="9.7" y="25" class="st2" width="1" height="1"/>
    <rect x="9.7" y="24.1" class="st2" width="1" height="1"/>
    <rect x="9.7" y="23.1" class="st3" width="1" height="1"/>
    <rect x="9.7" y="22.2" class="st3" width="1" height="1"/>
    <rect x="9.7" y="21.2" class="st2" width="1" height="1"/>
    <rect x="9.7" y="20.3" class="st2" width="1" height="1"/>
    <rect x="9.7" y="19.3" class="st3" width="1" height="1"/>
    <rect x="9.7" y="18.3" class="st2" width="1" height="1"/>
    <rect x="9.7" y="17.4" class="st2" width="1" height="1"/>
    <rect x="9.7" y="16.4" class="st2" width="1" height="1"/>
    <rect x="9.7" y="15.5" class="st2" width="1" height="1"/>
    <rect x="9.7" y="14.5" class="st2" width="1" height="1"/>
    <rect x="9.7" y="13.6" class="st3" width="1" height="1"/>
    <rect x="9.7" y="12.6" class="st3" width="1" height="1"/>
    <rect x="9.7" y="11.7" class="st2" width="1" height="1"/>
    <rect x="9.7" y="10.7" class="st2" width="1" height="1"/>
    <rect x="9.7" y="9.7" class="st2" width="1" height="1"/>
    <rect x="9.7" y="8.8" class="st3" width="1" height="1"/>
    <rect x="9.7" y="7.8" class="st2" width="1" height="1"/>
    <rect x="9.7" y="6.9" class="st2" width="1" height="1"/>
    <rect x="9.7" y="5.9" class="st2" width="1" height="1"/>
    <rect x="9.7" y="5" class="st2" width="1" height="1"/>
    <rect x="9.7" y="4" class="st2" width="1" height="1"/>
    <rect x="9.7" y="3.1" class="st2" width="1" height="1"/>
    <rect x="9.7" y="2.1" class="st2" width="1" height="1"/>
    <rect x="9.7" y="1.1" class="st2" width="1" height="1"/>
    <rect x="8.8" y="26.9" class="st2" width="1" height="1"/>
    <rect x="8.8" y="26" class="st2" width="1" height="1"/>
    <rect x="8.8" y="25" class="st3" width="1" height="1"/>
    <rect x="8.8" y="24.1" class="st2" width="1" height="1"/>
    <rect x="8.8" y="23.1" class="st2" width="1" height="1"/>
    <rect x="8.8" y="22.2" class="st2" width="1" height="1"/>
    <rect x="8.8" y="21.2" class="st2" width="1" height="1"/>
    <rect x="8.8" y="20.3" class="st3" width="1" height="1"/>
    <rect x="8.8" y="19.3" class="st3" width="1" height="1"/>
    <rect x="8.8" y="18.3" class="st2" width="1" height="1"/>
    <rect x="8.8" y="17.4" class="st2" width="1" height="1"/>
    <rect x="8.8" y="16.4" class="st3" width="1" height="1"/>
    <rect x="8.8" y="15.5" class="st3" width="1" height="1"/>
    <rect x="8.8" y="14.5" class="st3" width="1" height="1"/>
    <rect x="8.8" y="13.6" class="st3" width="1" height="1"/>
    <rect x="8.8" y="12.6" class="st3" width="1" height="1"/>
    <rect x="8.8" y="11.7" class="st2" width="1" height="1"/>
    <rect x="8.8" y="10.7" class="st2" width="1" height="1"/>
    <rect x="8.8" y="9.7" class="st2" width="1" height="1"/>
    <rect x="8.8" y="8.8" class="st2" width="1" height="1"/>
    <rect x="8.8" y="7.8" class="st2" width="1" height="1"/>
    <rect x="8.8" y="6.9" class="st2" width="1" height="1"/>
    <rect x="8.8" y="5.9" class="st2" width="1" height="1"/>
    <rect x="8.8" y="5" class="st2" width="1" height="1"/>
    <rect x="8.8" y="4" class="st3" width="1" height="1"/>
    <rect x="8.8" y="3.1" class="st2" width="1" height="1"/>
    <rect x="8.8" y="2.1" class="st2" width="1" height="1"/>
    <rect x="8.8" y="1.1" class="st2" width="1" height="1"/>
    <rect x="8.8" y="0.2" class="st2" width="1" height="1"/>
    <rect x="7.8" y="26.9" class="st2" width="1" height="1"/>
    <rect x="7.8" y="26" class="st2" width="1" height="1"/>
    <rect x="7.8" y="25" class="st3" width="1" height="1"/>
    <rect x="7.8" y="24.1" class="st3" width="1" height="1"/>
    <rect x="7.8" y="23.1" class="st2" width="1" height="1"/>
    <rect x="7.8" y="22.2" class="st2" width="1" height="1"/>
    <rect x="7.8" y="21.2" class="st3" width="1" height="1"/>
    <rect x="7.8" y="20.3" class="st3" width="1" height="1"/>
    <rect x="7.8" y="19.3" class="st2" width="1" height="1"/>
    <rect x="7.8" y="18.3" class="st2" width="1" height="1"/>
    <rect x="7.8" y="17.4" class="st2" width="1" height="1"/>
    <rect x="7.8" y="16.4" class="st3" width="1" height="1"/>
    <rect x="7.8" y="15.5" class="st3" width="1" height="1"/>
    <rect x="7.8" y="14.5" class="st3" width="1" height="1"/>
    <rect x="7.8" y="13.6" class="st3" width="1" height="1"/>
    <rect x="7.8" y="12.6" class="st2" width="1" height="1"/>
    <rect x="7.8" y="11.7" class="st2" width="1" height="1"/>
    <rect x="7.8" y="10.7" class="st2" width="1" height="1"/>
    <rect x="7.8" y="9.7" class="st3" width="1" height="1"/>
    <rect x="7.8" y="8.8" class="st3" width="1" height="1"/>
    <rect x="7.8" y="7.8" class="st2" width="1" height="1"/>
    <rect x="7.8" y="6.9" class="st3" width="1" height="1"/>
    <rect x="7.8" y="5.9" class="st2" width="1" height="1"/>
    <rect x="7.8" y="5" class="st2" width="1" height="1"/>
    <rect x="7.8" y="4" class="st2" width="1" height="1"/>
    <rect x="7.8" y="3.1" class="st2" width="1" height="1"/>
    <rect x="7.8" y="2.1" class="st2" width="1" height="1"/>
    <rect x="7.8" y="1.1" class="st2" width="1" height="1"/>
    <rect x="6.9" y="26" class="st2" width="1" height="1"/>
    <rect x="6.9" y="25" class="st2" width="1" height="1"/>
    <rect x="6.9" y="24.1" class="st2" width="1" height="1"/>
    <rect x="6.9" y="23.1" class="st2" width="1" height="1"/>
    <rect x="6.9" y="22.2" class="st2" width="1" height="1"/>
    <rect x="6.9" y="21.2" class="st2" width="1" height="1"/>
    <rect x="6.9" y="20.3" class="st2" width="1" height="1"/>
    <rect x="6.9" y="19.3" class="st2" width="1" height="1"/>
    <rect x="6.9" y="18.3" class="st2" width="1" height="1"/>
    <rect x="6.9" y="17.4" class="st2" width="1" height="1"/>
    <rect x="6.9" y="16.4" class="st2" width="1" height="1"/>
    <rect x="6.9" y="15.5" class="st3" width="1" height="1"/>
    <rect x="6.9" y="14.5" class="st2" width="1" height="1"/>
    <rect x="6.9" y="13.6" class="st2" width="1" height="1"/>
    <rect x="6.9" y="12.6" class="st2" width="1" height="1"/>
    <rect x="6.9" y="11.7" class="st2" width="1" height="1"/>
    <rect x="6.9" y="10.7" class="st2" width="1" height="1"/>
    <rect x="6.9" y="9.7" class="st3" width="1" height="1"/>
    <rect x="6.9" y="8.8" class="st3" width="1" height="1"/>
    <rect x="6.9" y="7.8" class="st2" width="1" height="1"/>
    <rect x="6.9" y="6.9" class="st2" width="1" height="1"/>
    <rect x="6.9" y="5.9" class="st2" width="1" height="1"/>
    <rect x="6.9" y="5" class="st2" width="1" height="1"/>
    <rect x="6.9" y="4" class="st3" width="1" height="1"/>
    <rect x="6.9" y="3.1" class="st3" width="1" height="1"/>
    <rect x="6.9" y="2.1" class="st2" width="1" height="1"/>
    <rect x="5.9" y="25" class="st2" width="1" height="1"/>
    <rect x="5.9" y="24.1" class="st2" width="1" height="1"/>
    <rect x="5.9" y="23.1" class="st3" width="1" height="1"/>
    <rect x="5.9" y="22.2" class="st3" width="1" height="1"/>
    <rect x="5.9" y="21.2" class="st3" width="1" height="1"/>
    <rect x="5.9" y="20.3" class="st2" width="1" height="1"/>
    <rect x="5.9" y="19.3" class="st2" width="1" height="1"/>
    <rect x="5.9" y="18.3" class="st2" width="1" height="1"/>
    <rect x="5.9" y="17.4" class="st2" width="1" height="1"/>
    <rect x="5.9" y="16.4" class="st2" width="1" height="1"/>
    <rect x="5.9" y="15.5" class="st2" width="1" height="1"/>
    <rect x="5.9" y="14.5" class="st2" width="1" height="1"/>
    <rect x="5.9" y="13.6" class="st3" width="1" height="1"/>
    <rect x="5.9" y="12.6" class="st3" width="1" height="1"/>
    <rect x="5.9" y="11.7" class="st3" width="1" height="1"/>
    <rect x="5.9" y="10.7" class="st2" width="1" height="1"/>
    <rect x="5.9" y="9.7" class="st3" width="1" height="1"/>
    <rect x="5.9" y="8.8" class="st3" width="1" height="1"/>
    <rect x="5.9" y="7.8" class="st3" width="1" height="1"/>
    <rect x="5.9" y="6.9" class="st2" width="1" height="1"/>
    <rect x="5.9" y="5.9" class="st2" width="1" height="1"/>
    <rect x="5.9" y="5" class="st2" width="1" height="1"/>
    <rect x="5.9" y="4" class="st2" width="1" height="1"/>
    <rect x="5.9" y="3.1" class="st2" width="1" height="1"/>
    <rect x="5.9" y="2.1" class="st2" width="1" height="1"/>
    <rect x="5" y="24.1" class="st2" width="1" height="1"/>
    <rect x="5" y="23.1" class="st2" width="1" height="1"/>
    <rect x="5" y="22.2" class="st2" width="1" height="1"/>
    <rect x="5" y="21.2" class="st2" width="1" height="1"/>
    <rect x="5" y="20.3" class="st2" width="1" height="1"/>
    <rect x="5" y="19.3" class="st2" width="1" height="1"/>
    <rect x="5" y="18.3" class="st2" width="1" height="1"/>
    <rect x="5" y="17.4" class="st2" width="1" height="1"/>
    <rect x="5" y="16.4" class="st2" width="1" height="1"/>
    <rect x="5" y="15.5" class="st2" width="1" height="1"/>
    <rect x="5" y="14.5" class="st3" width="1" height="1"/>
    <rect x="5" y="13.6" class="st3" width="1" height="1"/>
    <rect x="5" y="12.6" class="st3" width="1" height="1"/>
    <rect x="5" y="11.7" class="st3" width="1" height="1"/>
    <rect x="5" y="10.7" class="st2" width="1" height="1"/>
    <rect x="5" y="9.7" class="st2" width="1" height="1"/>
    <rect x="5" y="8.8" class="st2" width="1" height="1"/>
    <rect x="5" y="7.8" class="st2" width="1" height="1"/>
    <rect x="5" y="6.9" class="st2" width="1" height="1"/>
    <rect x="5" y="5.9" class="st2" width="1" height="1"/>
    <rect x="5" y="5" class="st2" width="1" height="1"/>
    <rect x="5" y="4" class="st2" width="1" height="1"/>
    <rect x="5" y="3.1" class="st2" width="1" height="1"/>
    <rect x="4" y="23.1" class="st2" width="1" height="1"/>
    <rect x="4" y="22.2" class="st2" width="1" height="1"/>
    <rect x="4" y="21.2" class="st3" width="1" height="1"/>
    <rect x="4" y="20.3" class="st2" width="1" height="1"/>
    <rect x="4" y="19.3" class="st2" width="1" height="1"/>
    <rect x="4" y="18.3" class="st2" width="1" height="1"/>
    <rect x="4" y="17.4" class="st2" width="1" height="1"/>
    <rect x="4" y="16.4" class="st3" width="1" height="1"/>
    <rect x="4" y="15.5" class="st2" width="1" height="1"/>
    <rect x="4" y="14.5" class="st3" width="1" height="1"/>
    <rect x="4" y="13.6" class="st2" width="1" height="1"/>
    <rect x="4" y="12.6" class="st2" width="1" height="1"/>
    <rect x="4" y="11.7" class="st2" width="1" height="1"/>
    <rect x="4" y="10.7" class="st2" width="1" height="1"/>
    <rect x="4" y="9.7" class="st2" width="1" height="1"/>
    <rect x="4" y="8.8" class="st2" width="1" height="1"/>
    <rect x="4" y="7.8" class="st2" width="1" height="1"/>
    <rect x="4" y="6.9" class="st2" width="1" height="1"/>
    <rect x="4" y="5.9" class="st2" width="1" height="1"/>
    <rect x="4" y="5" class="st2" width="1" height="1"/>
    <rect x="3.1" y="22.2" class="st2" width="1" height="1"/>
    <rect x="3.1" y="21.2" class="st2" width="1" height="1"/>
    <rect x="3.1" y="20.3" class="st2" width="1" height="1"/>
    <rect x="3.1" y="19.3" class="st2" width="1" height="1"/>
    <rect x="3.1" y="18.3" class="st2" width="1" height="1"/>
    <rect x="3.1" y="17.4" class="st2" width="1" height="1"/>
    <rect x="3.1" y="16.4" class="st2" width="1" height="1"/>
    <rect x="3.1" y="15.5" class="st2" width="1" height="1"/>
    <rect x="3.1" y="14.5" class="st2" width="1" height="1"/>
    <rect x="3.1" y="13.6" class="st2" width="1" height="1"/>
    <rect x="3.1" y="12.6" class="st3" width="1" height="1"/>
    <rect x="3.1" y="11.7" class="st3" width="1" height="1"/>
    <rect x="3.1" y="10.7" class="st2" width="1" height="1"/>
    <rect x="3.1" y="9.7" class="st3" width="1" height="1"/>
    <rect x="3.1" y="8.8" class="st2" width="1" height="1"/>
    <rect x="3.1" y="7.8" class="st2" width="1" height="1"/>
    <rect x="3.1" y="6.9" class="st2" width="1" height="1"/>
    <rect x="2.1" y="17.4" class="st2" width="1" height="1"/>
    <rect x="2.1" y="16.4" class="st2" width="1" height="1"/>
    <rect x="2.1" y="15.5" class="st2" width="1" height="1"/>
    <rect x="2.1" y="13.6" class="st2" width="1" height="1"/>
    <rect x="2.1" y="12.6" class="st2" width="1" height="1"/>
    <rect x="2.1" y="11.7" class="st3" width="1" height="1"/>
    <rect x="2.1" y="10.7" class="st2" width="1" height="1"/>
    <rect x="2.1" y="9.7" class="st2" width="1" height="1"/>
    <rect x="2.1" y="8.8" class="st2" width="1" height="1"/>
    <rect x="2.1" y="7.8" class="st2" width="1" height="1"/>
    <rect x="1.1" y="18.3" class="st2" width="1" height="1"/>
    <rect x="1.1" y="17.4" class="st2" width="1" height="1"/>
    <rect x="1.1" y="16.4" class="st2" width="1" height="1"/>
    <rect x="1.1" y="15.5" class="st2" width="1" height="1"/>
    <rect x="1.1" y="14.5" class="st2" width="1" height="1"/>
    <rect x="1.1" y="13.6" class="st2" width="1" height="1"/>
    <rect x="1.1" y="12.6" class="st2" width="1" height="1"/>
    <rect x="1.1" y="11.7" class="st2" width="1" height="1"/>
    <rect x="1.1" y="10.7" class="st2" width="1" height="1"/>
    <rect x="1.1" y="9.7" class="st2" width="1" height="1"/>
    <rect x="0.2" y="17.4" class="st2" width="1" height="1"/>
    <rect x="0.2" y="16.4" class="st2" width="1" height="1"/>
    <rect x="0.2" y="14.5" class="st2" width="1" height="1"/>
    <rect x="0.2" y="13.6" class="st2" width="1" height="1"/>
    <rect x="0.2" y="11.7" class="st2" width="1" height="1"/>
    <rect x="0.2" y="10.7" class="st2" width="1" height="1"/>
</g>
</svg>
