<?xml version="1.0" encoding="utf-8"?>
<!-- Generator: Adobe Illustrator 23.0.2, SVG Export Plug-In . SVG Version: 6.00 Build 0)  -->
<svg version="1.1" xmlns="http://www.w3.org/2000/svg" xmlns:xlink="http://www.w3.org/1999/xlink" x="0px" y="0px"
	 viewBox="0 0 254.6 199.3" style="enable-background:new 0 0 254.6 199.3; " xml:space="preserve">
<style type="text/css">
	.st0{display:none;}
	.st1{fill:#A1BC00;}
	.st2{fill:#FFFFFF;}
</style>
<g id="Warstwa_1" class="st0">
	
		<image style="display:inline;overflow:visible; " width="30" height="30" xlink:href="frogger.jpg"  transform="matrix(1 0 0 1 178.8939 269.7718)">
	</image>
</g>
<g id="Warstwa_2">
	<g>
		<polygon class="st1" points="62.9,26.1 82.9,26.1 82.9,3.8 171.6,3.8 171.6,26.1 191.6,26.1 191.6,155.7 171.6,155.7 171.6,176.7 
			82.9,176.7 82.9,155.7 62.9,155.7 		"/>
		<rect x="62.9" y="25.1" class="st2" width="20" height="20"/>
		<rect x="42.9" y="69.3" class="st2" width="20" height="20"/>
		<rect x="22.9" y="69.3" class="st2" width="20" height="20"/>
		<rect x="22.9" y="49.3" class="st2" width="20" height="20"/>
		<rect x="22.9" y="29.3" class="st2" width="20" height="20"/>
		<rect x="22.9" y="9.3" class="st2" width="20" height="20"/>
		<rect x="2.9" y="25.1" class="st2" width="20" height="20"/>
		<rect x="42.9" y="115.5" class="st2" width="20" height="20"/>
		<rect x="22.9" y="175.5" class="st2" width="20" height="20"/>
		<rect x="22.9" y="155.5" class="st2" width="20" height="20"/>
		<rect x="22.9" y="135.5" class="st2" width="20" height="20"/>
		<rect x="22.9" y="115.5" class="st2" width="20" height="20"/>
		<rect x="2.9" y="155.5" class="st2" width="20" height="20"/>
		<rect x="231.6" y="25.1" class="st2" width="20" height="20"/>
		<rect x="211.6" y="69.3" class="st2" width="20" height="20"/>
		<rect x="211.6" y="49.3" class="st2" width="20" height="20"/>
		<rect x="211.6" y="29.3" class="st2" width="20" height="20"/>
		<rect x="211.6" y="9.3" class="st2" width="20" height="20"/>
		<rect x="191.6" y="69.3" class="st2" width="20" height="20"/>
		<rect x="231.6" y="155.9" class="st2" width="20" height="20"/>
		<rect x="211.6" y="175.5" class="st2" width="20" height="20"/>
		<rect x="211.6" y="155.5" class="st2" width="20" height="20"/>
		<rect x="211.6" y="135.5" class="st2" width="20" height="20"/>
		<rect x="211.6" y="115.5" class="st2" width="20" height="20"/>
		<rect x="191.6" y="115.5" class="st2" width="20" height="20"/>
		<rect x="171.6" y="25.1" class="st2" width="20" height="20"/>
	</g>
</g>
</svg>
