<?xml version="1.0" encoding="utf-8"?>
<!-- Generator: Adobe Illustrator 24.1.0, SVG Export Plug-In . SVG Version: 6.00 Build 0)  -->
<svg version="1.1" id="Warstwa_1" xmlns="http://www.w3.org/2000/svg" xmlns:xlink="http://www.w3.org/1999/xlink" x="0px" y="0px"
     viewBox="0 0 30 30" style="enable-background:new 0 0 30 30;" xml:space="preserve">
<style type="text/css">
  .st0{fill:#E52421;}
	.st1{fill:#E72380;}
</style>
  <g>
	<path class="st0" d="M13.4,29.5c-0.5-0.7-2.4-3.4-2.8-5.8c-0.5-2.9-1.2-5.4-1.2-5.4C9.4,18.1,9.2,18,9,18H8.9
		c-0.1,0-0.3,0.1-0.4,0.2L3,23.9l-2.3-1.6L9.3,12c0.1-0.1,0.1-0.3,0.1-0.4c0-0.1-0.1-0.3-0.2-0.3c-1.6-1.1-2.6-2.9-2.6-4.9
		c0-3.3,2.6-5.9,5.9-5.9s5.9,2.7,5.9,5.9c0,1.6-0.2,2.6-1.2,3.6c-0.1,0.1-0.2,0.3-0.1,0.4c0,0.2,0.1,0.3,0.3,0.4l12,6l-1.5,2.5
		L19.1,15c-0.1,0-0.2,0-0.3,0c-0.2,0-0.3,0.1-0.4,0.2c-0.1,0.2-0.1,0.5,0,0.6s0.4,0.7,0.8,1.4c0.7,1.3,1.9,3.4,3,5.3
		c1.3,2.2,1.7,3.4,1.8,4h-5.8c-0.2,0-0.3,0.1-0.4,0.2s-0.1,0.3-0.1,0.4l0.6,2.4H13.4z"/>
    <path class="st1" d="M12.5,1c3,0,5.4,2.4,5.4,5.4c0,1.7-0.2,2.4-1.1,3.3c-0.2,0.2-0.3,0.5-0.3,0.9c0.1,0.3,0.3,0.6,0.5,0.7
		l11.5,5.8l-1,1.6l-8.3-4.1c-0.1-0.1-0.3-0.1-0.4-0.1c-0.3,0-0.6,0.1-0.8,0.4c-0.3,0.4-0.3,0.9,0,1.2c0.1,0.1,0.4,0.8,0.8,1.4
		c0.7,1.3,1.9,3.4,3.1,5.3c0.9,1.5,1.4,2.6,1.6,3.3h-5.2l0,0c-0.3,0-0.6,0.1-0.8,0.4c-0.2,0.2-0.3,0.6-0.2,0.9l0.4,1.8h-4.2
		c-0.6-0.9-2.2-3.3-2.5-5.4c-0.5-3-1.2-5.4-1.2-5.5c-0.1-0.3-0.4-0.6-0.7-0.7c-0.1,0-0.2,0-0.2,0c-0.3,0-0.5,0.1-0.7,0.3l-5.3,5.5
		l-1.5-1.1l8.2-9.8c0.2-0.2,0.3-0.5,0.2-0.8c0-0.3-0.2-0.5-0.4-0.7C8,9.9,7.1,8.2,7.1,6.4C7.1,3.4,9.5,1,12.5,1 M12.5,0
		C9,0,6.1,2.9,6.1,6.4c0,2.2,1.1,4.2,2.8,5.3L0,22.4l3.1,2.2L9,18.4c0,0,0.7,2.4,1.2,5.4c0.5,2.9,3,6.2,3,6.2h5.9l-0.7-3h6.4
		c0,0,0.2-1.3-2-4.8c-1.9-3.1-3.7-6.5-3.9-6.8L28,20l2-3.3l-12.5-6.3c1.1-1.2,1.4-2.2,1.4-4C18.9,2.9,16,0,12.5,0L12.5,0z"/>
</g>
</svg>

