<?xml version="1.0" encoding="utf-8"?>
<!-- Generator: Adobe Illustrator 24.1.0, SVG Export Plug-In . SVG Version: 6.00 Build 0)  -->
<svg version="1.1" id="Warstwa_1" xmlns="http://www.w3.org/2000/svg" xmlns:xlink="http://www.w3.org/1999/xlink" x="0px" y="0px"
	 viewBox="0 0 30 30" style="enable-background:new 0 0 30 30;" xml:space="preserve">
<style type="text/css">
	.st0{fill:#E52421;}
	.st1{fill:#E72380;}
</style>
<g>
	<path class="st0" d="M19.1,29.4l-3.7-3.9c-0.1-0.1-0.2-0.2-0.4-0.2c0,0,0,0,0,0c-0.1,0-0.3,0.1-0.4,0.2l-2.6,3.8H8l1.1-13
		c0-0.2-0.1-0.4-0.2-0.5l-8.4-5.1V6.9l8.2,5.1c0.1,0.1,0.2,0.1,0.3,0.1c0.2,0,0.3-0.1,0.4-0.2c0.1-0.2,0.1-0.5-0.1-0.7
		c-1.6-1.1-2.6-2.9-2.6-4.9c0-3.3,2.6-5.9,5.9-5.9c3.2,0,5.9,2.7,5.9,5.9c0,2.3-0.4,3.8-1.2,4.6c-0.2,0.2-0.2,0.4-0.1,0.6
		c0.1,0.2,0.3,0.3,0.4,0.3c0,0,0.1,0,0.1,0L29.5,9v3.5l-11.3,2.9c-0.1,0-0.2,0.1-0.3,0.2c-0.1,0.1-0.1,0.3,0,0.4
		c0.3,0.9,1.6,5,2.8,8.6c0.7,2,1.3,3.9,1.6,4.8H19.1z"/>
	<path class="st1" d="M12.5,0.9c3,0,5.4,2.4,5.4,5.4c0,2.1-0.4,3.5-1.1,4.2c-0.3,0.3-0.4,0.8-0.2,1.2c0.2,0.3,0.5,0.5,0.9,0.5
		c0.1,0,0.2,0,0.2,0L29,9.6v2.5l-10.9,2.8c-0.3,0.1-0.5,0.2-0.6,0.5c-0.1,0.2-0.2,0.5-0.1,0.8c0.3,0.9,1.6,5,2.8,8.6
		c0.5,1.5,1,3.1,1.4,4.1h-2.3l-3.6-3.7c-0.2-0.2-0.4-0.3-0.7-0.3c0,0-0.1,0-0.1,0c-0.3,0-0.6,0.2-0.7,0.4l-2.5,3.6H8.5l1.1-12.4
		c0-0.4-0.2-0.7-0.5-0.9l-8.2-5V7.8l7.4,4.7c0.2,0.1,0.3,0.2,0.5,0.2c0.3,0,0.6-0.2,0.8-0.5c0.3-0.5,0.2-1.1-0.3-1.4
		C8,9.8,7.1,8.1,7.1,6.3C7.1,3.4,9.5,0.9,12.5,0.9 M12.5-0.1C9-0.1,6.1,2.8,6.1,6.3c0,2.2,1.1,4.2,2.8,5.3L0,6v5.1l8.6,5.3L7.4,29.9
		h4.8l2.8-4l3.9,4H23c0,0-4.1-12.5-4.6-14.1l11.6-3V8.4l-12.5,2.9c1.1-1.2,1.4-3.2,1.4-4.9C18.9,2.8,16-0.1,12.5-0.1L12.5-0.1z"/>
</g>
</svg>
